<svg xmlns="http://www.w3.org/2000/svg" viewBox="0 0 181.75 52.68"><defs><style>.cls-1{fill:none;stroke:#fff;stroke-miterlimit:10;}.cls-2{fill:#fff;}</style></defs><title>Asset 2</title><g id="Layer_2" data-name="Layer 2"><g id="Layer_1-2" data-name="Layer 1"><path class="cls-1" d="M177.71,40.27a6.27,6.27,0,0,1,3.5,5.62c0,3.06-1.78,6.15-5.33,6.15H170.5c-3.52,0-5.33-3.09-5.33-6.22a5.75,5.75,0,0,1,3.59-5.48l1.3,3.21c-1.94,1.06-1.5,4.54.44,4.54h5.38c1.87,0,2.4-3.52.24-4.38Z"/><path class="cls-1" d="M165.39,38.84v-4h11.7V28.53H181V38.84Z"/><path class="cls-1" d="M175.77,23.28c2.51,0,2.51-4.45,0-4.47H165.39v-4h10.38c7.31,0,7.31,12.47,0,12.45H165.39v-4Z"/><path class="cls-1" d="M172.68,2.77A4,4,0,0,1,177,.56c2.51.4,4,2.1,4,5.56v6.37h-15.6V6.23c0-3,1.78-5.16,4.76-5.07A3.12,3.12,0,0,1,172.68,2.77Zm-1.19,3.46A1.39,1.39,0,0,0,168.72,6a1,1,0,0,0,0,.24V8.52h2.77Zm6,0A1.6,1.6,0,1,0,174.3,6a1,1,0,0,0,0,.25V8.52h3.19Z"/><path class="cls-2" d="M39.15,45.38h-.83v5.8H33.63V32.94H41c3.79,0,6.72,1.73,6.82,6,0,3.38-1.37,5.28-3.6,6l5,6.26H43.41Zm1.9-4a2.09,2.09,0,1,0,0-4.18H38.32v4.18Z"/><path class="cls-2" d="M82.86,41.31a4.6,4.6,0,0,1,2.59,5C85,49.24,83,51,79,51h-7.5V32.79h7.37c3.5,0,6.07,2.08,6,5.56A3.68,3.68,0,0,1,82.86,41.31Zm-4.07-1.39a1.62,1.62,0,0,0,0-3.24h-2.7v3.24Zm0,7.06a1.88,1.88,0,0,0,.39-3.74,2.54,2.54,0,0,0-.39,0h-2.7V47Z"/><path class="cls-2" d="M87.16,38.79c0-4.2,3.79-6.26,7.6-6.26s7.63,2.09,7.63,6.26V45c0,4.17-3.79,6.26-7.6,6.26S87.16,49.19,87.16,45ZM91.81,45c0,1.34,1.5,2,3,2s3-.67,3-2V38.79c0-1.42-1.53-2.06-3-2.06s-2.9.72-2.9,2.06Z"/><path class="cls-2" d="M113.17,37.14V51h-4.69V37.14H103.6V32.76h14.45v4.38Z"/><path class="cls-2" d="M145.46,47.12a7.4,7.4,0,0,1-6.62,4.09c-3.6,0-7.23-2.08-7.23-6.23V38.7c0-4.12,3.63-6.23,7.31-6.23a6.81,6.81,0,0,1,6.46,4.19l-3.79,1.52c-1.24-2.26-5.34-1.75-5.34.52V45c0,2.19,4.15,2.81,5.16.28Z"/><path class="cls-2" d="M149.19,45.19c1.84,2.21,5.88,2.32,6,.36.06-1-1.63-1.62-3.13-1.83-3-.46-5.66-2.32-5.66-5.79s3.27-5.46,6.64-5.46a7.56,7.56,0,0,1,6.28,2.91l-3,2.31c-1.92-2-5.21-2-5.29.16.06.87,1,1.39,2.44,1.7,3.27.59,6.54,1.72,6.33,6.2-.16,3.53-3.89,5.46-7.26,5.46a8,8,0,0,1-6.25-3.29Z"/><path class="cls-2" d="M72,31.77a1.23,1.23,0,0,1-.63.73,1.12,1.12,0,0,1-1.06-.12L67.81,35.3l-.58-.65,2.25-1.93.19-.16c.28-.21.48-.38.3-.82a1,1,0,0,1,.68-1.21,1.08,1.08,0,0,1,1.3.57.66.66,0,0,0,.09.19Z"/><path class="cls-2" d="M59.61,44.88H52.14c-.67,0-1.34-.11-2-.21a.54.54,0,0,1-.49-.57V41.57a.55.55,0,0,1,.52-.59l1.54-.18a.25.25,0,0,0,.27-.21c.2-.52.42-1,.65-1.55a.27.27,0,0,0,0-.34l-.92-1.15a.61.61,0,0,1,0-.84l.08-.06L53.41,35a.59.59,0,0,1,.84-.09l0,0c.39.3.78.6,1.16.91a.3.3,0,0,0,.36,0c.52-.23,1-.44,1.57-.64.12,0,.18-.1.19-.23a13.46,13.46,0,0,1,.16-1.39c.05-.47.24-.7.78-.7h2.26c.46,0,.65.16.71.61s.13,1,.17,1.44c0,.17.09.23.25.29.52.19,1,.4,1.52.62a.27.27,0,0,0,.34,0L64.91,35a.59.59,0,0,1,.84-.09.76.76,0,0,1,.09.09l1.68,1.67a.59.59,0,0,1,.13.82l-.07.08-.93,1.17a.24.24,0,0,0,0,.3c.23.52.46,1,.66,1.57a.28.28,0,0,0,.25.21L69.1,41a.57.57,0,0,1,.55.61h0V44a.58.58,0,0,1-.54.62h0c-.8.08-1.61.19-2.41.2C64.3,44.9,62,44.88,59.61,44.88Zm4-1.26c.42,0,.42,0,.47-.35a.4.4,0,0,1,.47-.3.61.61,0,0,1,.14.07c.19.17.34.18.5,0a.53.53,0,0,1,.13-.13c.19-.14.21-.27,0-.46a.39.39,0,0,1,0-.54.41.41,0,0,1,.23-.09c.25,0,.35-.12.31-.37a.61.61,0,0,1,0-.19c0-.25-.07-.36-.32-.34s-.24-.19-.32-.33,0-.2,0-.29c.21-.26.21-.27,0-.51l-.12-.12c-.15-.2-.3-.19-.48,0a.4.4,0,0,1-.56-.1.35.35,0,0,1-.06-.14c0-.33,0-.33-.39-.33h-.17c-.25,0-.37.07-.35.31s-.17.23-.3.31a.22.22,0,0,1-.31,0h0c-.18-.19-.34-.19-.5,0a.34.34,0,0,1-.12.12c-.2.15-.24.32,0,.49s0,.31,0,.45a.35.35,0,0,1-.24.17c-.27,0-.36.12-.32.37a.61.61,0,0,1,0,.19c0,.24.07.33.3.35a.39.39,0,0,1,.35.43.37.37,0,0,1-.1.22c0,.08-.13.21-.1.25a2.78,2.78,0,0,0,.49.48,2.24,2.24,0,0,0,.32-.16.44.44,0,0,1,.58.23h0c.05.3.05.3.44.3Zm-7.06-.7a1.33,1.33,0,0,1,.19.14c.15.15.28.16.42,0l.1-.1c.28-.27.28-.27,0-.6a.43.43,0,0,1,.24-.55c.38-.07.38-.07.38-.45v-.19c0-.18-.06-.28-.24-.27s-.31-.14-.4-.32,0-.26.1-.36a.28.28,0,0,0,0-.4l-.14-.13c-.25-.25-.27-.27-.53,0s-.31,0-.45,0a.33.33,0,0,1-.15-.23c0-.32,0-.32-.37-.32h-.17c-.26,0-.36.07-.38.32a.4.4,0,0,1-.45.32.46.46,0,0,1-.16-.07c-.19-.17-.35-.18-.5,0a.34.34,0,0,1-.12.12c-.21.16-.23.32,0,.49s0,.31,0,.45a.35.35,0,0,1-.24.17c-.32,0-.33,0-.33.37v.17c0,.23,0,.35.31.37a.38.38,0,0,1,.36.4.36.36,0,0,1-.11.25.26.26,0,0,0,0,.42c.38.36.38.37.81.07L55,43a.3.3,0,0,1,.14.19c.07.4,0,.37.45.38h.15c.23,0,.33-.08.32-.3a.24.24,0,0,1,.18-.29h0l.29-.07Z"/><path class="cls-2" d="M52.56,45.63H55a.33.33,0,0,1,.23.17,5.41,5.41,0,0,0,8.9,0,.43.43,0,0,1,.42-.21h2.19a7.42,7.42,0,0,1-.45.89.41.41,0,0,0,.06.58h0c.34.39.65.81,1,1.22a.27.27,0,0,1,.05.36s0,0-.05,0l-1.75,1.69a.25.25,0,0,1-.35,0l0,0-1.39-1.09a.21.21,0,0,0-.29,0,7.25,7.25,0,0,1-2,.81.23.23,0,0,0-.2.22c-.06.58-.14,1.15-.2,1.72,0,.23-.12.3-.35.3H58.49c-.25,0-.34-.09-.37-.33-.06-.56-.14-1.13-.2-1.69a.19.19,0,0,0-.18-.21,8.13,8.13,0,0,1-2-.83.3.3,0,0,0-.26,0l-1.34,1c-.25.2-.27.2-.5,0l-1.56-1.55c-.23-.24-.24-.25,0-.52l1-1.28a.27.27,0,0,0,0-.34A10,10,0,0,1,52.56,45.63Z"/><path class="cls-2" d="M52.05,34.68l-.63.61-2.53-2.9a1.19,1.19,0,0,1-.9.16,1.05,1.05,0,0,1-.77-1.27s0,0,0-.06a1.06,1.06,0,0,1,1.35-.68h0a1,1,0,0,1,.65,1.26l-.06.14c-.1.19,0,.27.09.39Z"/><path class="cls-2" d="M62.47,41.31a1.15,1.15,0,0,1,2.29-.22.81.81,0,0,1,0,.22,1.16,1.16,0,0,1-1.15,1.12A1.14,1.14,0,0,1,62.47,41.31Z"/><path class="cls-2" d="M56.77,41.33a1.16,1.16,0,0,1-1.16,1.14h0a1.15,1.15,0,1,1-.21-2.29h.21a1.14,1.14,0,0,1,1.16,1.12Z"/><path class="cls-2" d="M126.71,52.09c-.12.07-.24.15-.37.21a2.65,2.65,0,0,1-2.72,0,2.56,2.56,0,0,1-1.33-2.4c.11-4.17.24-8.34.36-12.51a.23.23,0,0,0-.15-.26,5.53,5.53,0,0,1-2.65-7.34l.12-.24a5.42,5.42,0,0,1,1.24-1.61.56.56,0,0,1,.65-.18.55.55,0,0,1,.29.58v3.5a.27.27,0,0,0,.16.27c.84.42,1.67.85,2.5,1.28a.31.31,0,0,0,.32,0c.83-.44,1.66-.87,2.5-1.29a.24.24,0,0,0,.15-.25V28.31a.51.51,0,0,1,.43-.58.5.5,0,0,1,.46.17,5.55,5.55,0,0,1,.72,7.6,5.41,5.41,0,0,1-2,1.58.24.24,0,0,0-.15.27q.24,6.16.47,12.32a2.93,2.93,0,0,1-.55,1.9h0Zm-1-2.71a1,1,0,0,0-1.41,0h0a1,1,0,0,0,1.41,1.43l0,0a1,1,0,0,0,0-1.41Z"/><path class="cls-2" d="M5,9.48H12v4H5v2.73h7.68v4.35H.5V2.32H12.64V6.65H5Z"/><path class="cls-2" d="M15,2.32h4.44V16H26.5v4.55H15Z"/><path class="cls-2" d="M32.7,9.48h7.06v4H32.7v2.73h7.68v4.35H28.24V2.32H40.38V6.65H32.7Z"/><path class="cls-2" d="M67.39,6.5V20.38H63V6.5H58.3V2.12H72V6.5Z"/><path class="cls-2" d="M79,14.59h-.79v5.79H73.74V2.15h7c3.6,0,6.38,1.73,6.48,6,0,3.37-1.31,5.28-3.42,6l4.75,6.26H83Zm1.8-4a2.09,2.09,0,0,0,.29-4.17H78.19v4.17Z"/><path class="cls-2" d="M105.86,2.15h4.19l4.21,7.78,1.47,3.65h.13s-.47-3.14-.5-3.14V2.15h4.39V20.38h-4.46l-3.94-7.18-1.53-3.66h-.12l.57,3.52v7.29h-4.41Z"/><path class="cls-2" d="M126.91,20.38H122.5V2.15h4.41Z"/><path class="cls-2" d="M142.39,16.54a7,7,0,0,1-6.28,4.1c-3.42,0-6.87-2.09-6.87-6.23V8.12c0-4.12,3.45-6.23,6.95-6.23a6.48,6.48,0,0,1,6.13,4.2l-3.6,1.52c-1.18-2.27-5.07-1.75-5.07.51v6.29c0,2.19,3.94,2.8,4.9.28Z"/><path class="cls-2" d="M97.38,2.49a5.4,5.4,0,0,0,.58.09,8.33,8.33,0,0,1,6.82,6.87,7.28,7.28,0,0,0,.1.8v.88c-.18.27-.34.35-.53.29s-.3-.22-.31-.57a7.6,7.6,0,0,0-5.65-7.3,7.4,7.4,0,0,0-1.56-.19c-.29,0-.46-.12-.5-.35a.45.45,0,0,1,.31-.52Z"/><path class="cls-2" d="M94,5.9c.11.13.21.24.3.36s.09.07.16,0a3.06,3.06,0,0,1,1.43-.55h.19a.15.15,0,0,1,.11.18.17.17,0,0,1-.11.11h-.28a3,3,0,0,0-1.3.57c-.17.12-.19.12-.33,0l-.36-.42s-.06-.09-.12,0a5.6,5.6,0,0,0-1.3,1.27l1.45,1.21a5.12,5.12,0,0,1,.79-1,4.15,4.15,0,0,1,2.73-1.1c.22,0,.35.09.36.27s-.12.3-.35.31a3.59,3.59,0,0,0-3.17,2A3.81,3.81,0,0,0,97.38,15a.29.29,0,0,1,.31.27v0a.28.28,0,0,1-.28.28h0a4.22,4.22,0,0,1-3.75-2.4c-.06-.13-.11-.17-.25-.12-.62.22-1.24.42-1.86.62-.13,0-.14.08-.09.2A5.26,5.26,0,0,0,93,15.92l.15.13a.14.14,0,0,1,0,.2l0,0a.13.13,0,0,1-.18,0l0,0a5.64,5.64,0,0,1-1.8-2.4c0-.13-.09-.14-.2-.1l-.86.29a7.75,7.75,0,0,0,1.47,2.28,7.13,7.13,0,0,0,5.12,2.3.81.81,0,0,1,.22,0,.44.44,0,0,1-.13.85,7.46,7.46,0,0,1-1.49-.15,8.14,8.14,0,0,1-5.8-4.61,8.41,8.41,0,0,1-.82-4.36,8.65,8.65,0,0,1,1.95-4.88.43.43,0,0,1,.58-.18.44.44,0,0,1,.18.59.48.48,0,0,1-.09.11,10,10,0,0,0-.7,1,7.89,7.89,0,0,0-1,4.73A8.2,8.2,0,0,0,90,13.69c0,.09.06.11.16.08l3.22-1.07c.1,0,.1-.07.07-.17a4.62,4.62,0,0,1,.23-3.59v-.2c-.42-.34-.85-.7-1.26-1.06-.11-.09-.15,0-.21,0a6,6,0,0,0-.94,3.1v.14c0,.09,0,.15-.13.15S91,11,91,10.91A6.36,6.36,0,0,1,91,10a6.14,6.14,0,0,1,2.69-4.32,5.36,5.36,0,0,1,2.56-.92c.15,0,.28,0,.36-.19A.34.34,0,0,1,97,4.45a5.81,5.81,0,0,1,2.2.56.42.42,0,0,1,.28.42.14.14,0,0,0,.09.15,5,5,0,0,1,1,.71.14.14,0,0,0,.17,0,.36.36,0,0,1,.48.09,6.14,6.14,0,0,1,1.33,2,.4.4,0,0,1-.1.52.15.15,0,0,0,0,.18,6.23,6.23,0,0,1,.27,1.21c0,.08,0,.1.1.12a.41.41,0,0,1,.32.44,6.71,6.71,0,0,1-.36,2.35.4.4,0,0,1-.46.33h0c-.07,0-.08,0-.1.08a6.71,6.71,0,0,1-.64,1.1v.15a.43.43,0,0,1-.07.54,6.12,6.12,0,0,1-1.83,1.44.42.42,0,0,1-.49-.05c0-.06-.1-.05-.16,0a5.48,5.48,0,0,1-1.18.34.14.14,0,0,0-.13.11.4.4,0,0,1-.35.27H96.9a.42.42,0,0,1-.4-.44h0a.42.42,0,0,1,.41-.43h.35a.31.31,0,0,1,.3.11.24.24,0,0,0,.26.08,6.7,6.7,0,0,0,1.08-.32.18.18,0,0,0,.13-.15.4.4,0,0,1,.22-.27,5.61,5.61,0,0,0,1.63-1.27.32.32,0,0,1,.24-.14c.11,0,.16-.06.22-.14a6.79,6.79,0,0,0,.6-1,.28.28,0,0,0,0-.22.36.36,0,0,1,0-.32,5.76,5.76,0,0,0,.31-2.06.39.39,0,0,1,.07-.26.37.37,0,0,0,.07-.32,5.94,5.94,0,0,0-.27-1.18c0-.05,0-.11-.08-.13a.55.55,0,0,1-.28-.3A5.3,5.3,0,0,0,100.64,7a.45.45,0,0,1-.17-.37.17.17,0,0,0-.07-.14,5.39,5.39,0,0,0-1-.72.12.12,0,0,0-.16,0,.4.4,0,0,1-.37,0,4.89,4.89,0,0,0-2-.39.4.4,0,0,1-.36-.19.12.12,0,0,0-.15-.07A5.31,5.31,0,0,0,94,5.9Z"/><path class="cls-2" d="M97.42,13.14a2.13,2.13,0,1,1,2-2.26V11A2.09,2.09,0,0,1,97.42,13.14Z"/><path class="cls-2" d="M101,10.94a3.61,3.61,0,0,1-3.48,3.72.29.29,0,0,1-.34-.23.29.29,0,0,1,.23-.34h.11a2.81,2.81,0,0,0,1.85-.73,3,3,0,0,0,.94-3.24,2.91,2.91,0,0,0-2.4-2.22h-.42a.29.29,0,0,1-.3-.28v0a.3.3,0,0,1,.32-.28h0a3.61,3.61,0,0,1,3.42,3A3.38,3.38,0,0,1,101,10.94Z"/><path class="cls-2" d="M101.68,11.27c.11,0,.13,0,.12.15a5.08,5.08,0,0,1-.43,1.67c0,.06-.05.12-.12.05s-.2,0-.13-.19a4.88,4.88,0,0,0,.38-1.34v-.18C101.53,11.27,101.53,11.27,101.68,11.27Z"/><path class="cls-2" d="M101,8.29l-.18.12c-.06,0-.08,0-.11-.05a4.44,4.44,0,0,0-.46-.59,3.21,3.21,0,0,0-.62-.54c-.15-.1,0-.17,0-.25s.11,0,.15,0A4.45,4.45,0,0,1,101,8.18Z"/><path class="cls-2" d="M101.8,10.55c0,.07,0,.16-.08.15s-.2.05-.21-.12a4,4,0,0,0-.39-1.52c-.08-.17,0-.17.11-.22s.11,0,.14.08A4.86,4.86,0,0,1,101.8,10.55Z"/><path class="cls-2" d="M99.71,15.09l-.12-.21v-.09a4.83,4.83,0,0,0,1.13-1.17c.09-.14.15,0,.22,0s0,.08,0,.12A4.61,4.61,0,0,1,99.8,15Z"/><path class="cls-2" d="M98.18,15.76a.15.15,0,0,1-.14-.13c0-.1,0-.14.12-.17l.49-.14c.12,0,.23-.1.35-.15s.09-.05.13,0,.11.17-.07.26a4.56,4.56,0,0,1-.81.28Z"/><path class="cls-2" d="M98.19,6.21a4.45,4.45,0,0,1,1,.37c.07,0,0,.08,0,.12s0,.19-.16.13a4.58,4.58,0,0,0-.87-.33.15.15,0,0,1-.11-.18.15.15,0,0,1,.11-.11Z"/><path class="cls-2" d="M146.62,6.24A3.25,3.25,0,0,0,144,10c0,.07,0,.15.05.22a3.16,3.16,0,0,0,3.08,2.44h10.49a3.57,3.57,0,0,1,3.5,3.61,3.58,3.58,0,0,1-3.38,3.78H147a.82.82,0,0,1-.13-1.6,1,1,0,0,1,.34,0h10.35a2,2,0,0,0,2-2,1.84,1.84,0,0,0-.06-.47,1.94,1.94,0,0,0-2-1.71H147.22a5.62,5.62,0,0,1-.92-.07,4.85,4.85,0,0,1-3.85-5.53,4.76,4.76,0,0,1,4.16-4.13c.12,0,.16,0,.19-.17A4.71,4.71,0,0,1,151.34.51h3.53a.81.81,0,0,1,.86.75.38.38,0,0,1,0,.15v.7h4a.77.77,0,0,1,.75.68.81.81,0,0,1-.52.9,2.29,2.29,0,0,1-.37,0h-3.84V7h3.84A1.15,1.15,0,0,1,160,7a.8.8,0,0,1,.52.9.77.77,0,0,1-.75.68h-4v.76a.8.8,0,0,1-.76.84h-3.71a4.35,4.35,0,0,1-3-1.2,4.93,4.93,0,0,1-1.53-2.82Zm5.8-4.09a13.19,13.19,0,0,0-1.54,0,3.17,3.17,0,0,0-2.61,3.26,3.15,3.15,0,0,0,3.09,3.19h2.79V2.15Z"/><path class="cls-2" d="M54.35.82a1.82,1.82,0,0,1,.54.15,3,3,0,0,1,2,3.1,3,3,0,0,1-2.53,2.72,2.86,2.86,0,0,1-3-2c-.06-.18-.13-.25-.32-.25H46c-.21,0-.27.07-.26.29V6c0,.22.07.27.26.26h1.15a.72.72,0,0,1,.77.66.33.33,0,0,1,0,.14v9.84a.73.73,0,0,1-.62.81H45.85c-.13,0-.18.05-.18.19V19.3c0,.14,0,.18.17.18h5.23c.14,0,.16-.09.2-.19a2.82,2.82,0,0,1,3.47-2,2.48,2.48,0,0,1,.65.27,3,3,0,0,1-.94,5.56,2.83,2.83,0,0,1-3.17-2,.27.27,0,0,0-.3-.22H45.13a.81.81,0,0,1-.87-.73,1.41,1.41,0,0,1,0-.2V17.74H43a.72.72,0,0,1-.7-.74h0V7.18c0-.62.26-.89.85-.89h1.15V4A.81.81,0,0,1,45,3.09a.61.61,0,0,1,.19,0H51a.31.31,0,0,0,.34-.25,2.85,2.85,0,0,1,2.25-2h.81Zm-10.7,7V16.3h2.78V7.77Zm11.79-4a1.46,1.46,0,1,0-2.91-.24,1,1,0,0,0,0,.24,1.46,1.46,0,0,0,2.91.24A1,1,0,0,0,55.44,3.82Zm0,16.4A1.46,1.46,0,1,0,54,21.73a1.49,1.49,0,0,0,1.47-1.51h0Z"/><path class="cls-1" d="M16.93,45.54,15.1,47l3.68,4.6H13l-1.32-1.58C7.62,53.6.5,51.52.5,45.43A5.31,5.31,0,0,1,3.44,40.5C.06,37,3,31.72,7.81,31.89A5.2,5.2,0,0,1,13.13,37h0a5.1,5.1,0,0,1-2.38,4.52l1.63,2L14.15,42ZM6.34,43.91a1.9,1.9,0,0,0-.9,2.53,2.54,2.54,0,0,0,.16.28,2,2,0,0,0,2.81.34,1.82,1.82,0,0,0,.34-.34Zm.09-6.84c0,.5.5,1.08,1,1.71.86-.58,1.36-1.08,1.36-1.8a1.14,1.14,0,0,0-1.08-1.19A1.3,1.3,0,0,0,6.43,37.07Z"/></g></g></svg>