<?xml version="1.0" encoding="utf-8"?>
<!-- Generator: Adobe Illustrator 24.1.2, SVG Export Plug-In . SVG Version: 6.00 Build 0)  -->
<svg version="1.1" id="Layer_1" xmlns="http://www.w3.org/2000/svg" xmlns:xlink="http://www.w3.org/1999/xlink" x="0px" y="0px"
	 viewBox="0 0 492 38.9" style="enable-background:new 0 0 492 38.9;" xml:space="preserve">
<style type="text/css">
	.st0{enable-background:new    ;}
</style>
<g>
	<g>
		<path d="M433.9,24.8c-1.5,3.1-4.7,5.1-8.2,5.1c-4.5,0-9-2.6-9-7.8v-7.9c0-5.1,4.5-7.8,9.1-7.8c3.5-0.1,6.7,2,8,5.3l-4.7,1.9
			c-1.5-2.8-6.6-2.2-6.6,0.6v7.9c0,2.7,5.1,3.5,6.4,0.4L433.9,24.8z"/>
		<path d="M436,6.8h5.8v17.1h9.3v5.7H436V6.8z"/>
		<path d="M458.7,21.9c0,3.7,6.5,3.7,6.5,0V6.8h5.8V22c0,10.7-18.2,10.7-18.2,0V6.8h5.8L458.7,21.9z"/>
		<path d="M488.7,17.4c2.4,1.1,3.7,3.7,3.2,6.2c-0.6,3.7-3.1,5.9-8.1,5.9h-9.3V6.8h9.1c4.4,0,7.5,2.6,7.4,7
			C490.9,15.3,490.1,16.7,488.7,17.4z M483.6,15.7c1.1,0,2-0.9,2-2s-0.9-2-2-2h-3.4v4.1L483.6,15.7L483.6,15.7z M483.6,24.5
			c1.3,0.1,2.5-0.8,2.6-2.1c0.1-1.3-0.8-2.5-2.1-2.6c-0.2,0-0.4,0-0.5,0h-3.4v4.7H483.6z"/>
	</g>
	<g>
		<path d="M259.1,22.6h-1v7.2h-5.8V7h9.1c4.7,0,8.3,2.2,8.5,7.5c0,4.2-1.7,6.6-4.5,7.5l6.2,7.8h-7.2L259.1,22.6z M261.5,17.6
			c1.4,0,2.6-1.2,2.6-2.6s-1.2-2.6-2.6-2.6l0,0h-3.4v5.2C258.1,17.6,261.5,17.6,261.5,17.6z"/>
		<path d="M313.4,17.5c2.4,1.1,3.7,3.7,3.2,6.2c-0.6,3.7-3,5.9-8.1,5.9h-9.3V6.8h9.1c4.4,0,7.5,2.6,7.4,7
			C315.6,15.4,314.7,16.7,313.4,17.5z M308.4,15.8c1.1,0,2-0.9,2-2s-0.9-2-2-2H305v4.1L308.4,15.8L308.4,15.8z M308.4,24.6
			c1.3,0.1,2.5-0.8,2.6-2.1c0.1-1.3-0.8-2.5-2.1-2.6c-0.2,0-0.4,0-0.5,0H305v4.7C305,24.6,308.4,24.6,308.4,24.6z"/>
		<path d="M318.8,14.3c0-5.3,4.7-7.8,9.4-7.8s9.5,2.6,9.5,7.8v7.8c0,5.2-4.7,7.8-9.4,7.8s-9.5-2.6-9.5-7.8V14.3z M324.5,22.1
			c0,1.7,1.9,2.5,3.7,2.5s3.7-0.8,3.7-2.5v-7.8c0-1.8-1.9-2.6-3.8-2.6s-3.6,0.9-3.6,2.6L324.5,22.1z"/>
		<path d="M351,12.3v17.4h-5.8V12.3h-6.1V6.8H357v5.5H351z"/>
		<path d="M391.1,24.8c-1.5,3.1-4.7,5.1-8.2,5.1c-4.5,0-9-2.6-9-7.8v-7.9c0-5.1,4.5-7.8,9.1-7.8c3.5-0.1,6.7,2,8,5.3l-4.7,1.9
			c-1.5-2.8-6.6-2.2-6.6,0.6v7.9c0,2.7,5.1,3.5,6.4,0.4L391.1,24.8z"/>
		<path d="M395.8,22.3c2.3,2.8,7.3,2.9,7.5,0.5c0.1-1.3-2-2-3.9-2.3c-3.7-0.6-7-2.9-7-7.3s4.1-6.8,8.2-6.8c3-0.1,5.9,1.2,7.8,3.6
			l-3.8,2.9c-2.4-2.5-6.5-2.4-6.6,0.2c0.1,1.1,1.3,1.7,3,2.1c4,0.7,8.1,2.2,7.9,7.8c-0.2,4.4-4.8,6.8-9,6.8c-3.1-0.1-6-1.6-7.8-4.1
			L395.8,22.3z"/>
		<path d="M300,5.6c-0.1,0.4-0.4,0.7-0.8,0.9c-0.4,0.2-0.9,0.1-1.3-0.1l-3.2,3.7L294,9.2l2.8-2.4l0.2-0.2c0.4-0.3,0.6-0.5,0.4-1
			c-0.2-0.6,0.1-1.3,0.8-1.5c0,0,0,0,0.1,0c0.6-0.2,1.3,0.1,1.6,0.7L300,5V5.6z"/>
		<path d="M284.5,22c-3.1,0-6.2,0-9.3,0c-0.8,0-1.7-0.1-2.5-0.3c-0.4,0-0.6-0.3-0.6-0.7c0-1,0-2.1,0-3.2c0-0.4,0.3-0.7,0.7-0.7
			c0.6-0.1,1.3-0.2,1.9-0.2c0.2,0,0.3-0.1,0.3-0.3c0.3-0.6,0.5-1.3,0.8-1.9c0.1-0.1,0.1-0.3,0-0.4c-0.4-0.5-0.8-1-1.1-1.4
			c-0.3-0.3-0.3-0.7,0-1l0.1-0.1l2.1-2.1c0.2-0.3,0.7-0.4,1-0.1c0,0,0,0,0.1,0.1c0.5,0.4,1,0.8,1.4,1.1c0.1,0.1,0.3,0.1,0.5,0.1
			c0.6-0.3,1.3-0.6,2-0.8c0.1,0,0.2-0.2,0.2-0.3c0.1-0.6,0.1-1.2,0.2-1.7s0.3-0.9,1-0.9h2.8c0.6,0,0.8,0.2,0.9,0.8s0.1,1.2,0.2,1.8
			c0,0.2,0.1,0.3,0.3,0.4c0.6,0.2,1.3,0.5,1.9,0.8c0.1,0.1,0.3,0.1,0.4,0c0.5-0.4,0.9-0.8,1.4-1.1c0.3-0.3,0.8-0.3,1.1-0.1l0.1,0.1
			c0.7,0.7,1.4,1.4,2.1,2.1c0.3,0.2,0.4,0.7,0.1,1l-0.1,0.1c-0.4,0.5-0.8,1-1.1,1.5c-0.1,0.1-0.1,0.3,0,0.4c0.3,0.6,0.6,1.3,0.8,2
			c0.1,0.2,0.1,0.2,0.3,0.3l1.9,0.2c0.4,0,0.7,0.3,0.7,0.7c0,0,0,0,0,0.1c0,1,0,2,0,3.1c0,0.4-0.2,0.7-0.6,0.8l0,0
			c-1,0.1-2,0.2-3,0.3C290.4,22,287.5,22,284.5,22z M289.5,20.4c0.5,0,0.5,0,0.6-0.4c0.1-0.3,0.3-0.4,0.6-0.4c0.1,0,0.1,0,0.2,0.1
			c0.2,0.2,0.4,0.2,0.6,0l0.2-0.2c0.2-0.2,0.3-0.3,0-0.6c-0.2-0.2-0.2-0.5,0-0.7c0.1-0.1,0.2-0.1,0.3-0.1c0.3,0,0.4-0.1,0.4-0.5
			c0-0.1,0-0.2,0-0.3c0-0.3-0.1-0.5-0.4-0.4s-0.3-0.2-0.4-0.4s0-0.3,0.1-0.4c0.3-0.3,0.3-0.3,0-0.6l-0.1-0.1c-0.2-0.3-0.4-0.2-0.6,0
			s-0.5,0.1-0.7-0.1c0-0.1-0.1-0.1-0.1-0.2c-0.1-0.4-0.1-0.4-0.5-0.4h-0.2c-0.3-0.1-0.5,0.1-0.4,0.4s-0.2,0.3-0.4,0.4
			c-0.1,0.1-0.3,0.1-0.4,0l0,0c-0.2-0.2-0.4-0.2-0.6,0c0,0.1-0.1,0.1-0.1,0.1c-0.3,0.2-0.3,0.4,0,0.6s0.1,0.4,0,0.6
			c-0.1,0.1-0.2,0.2-0.3,0.2c-0.3,0-0.4,0.2-0.4,0.5c0,0.1,0,0.2,0,0.2c0,0.3,0.1,0.4,0.4,0.4s0.5,0.3,0.4,0.5
			c0,0.1-0.1,0.2-0.1,0.3c-0.1,0.1-0.2,0.3-0.1,0.3c0.2,0.2,0.4,0.4,0.6,0.6c0.1,0,0.3-0.1,0.4-0.2c0.3-0.1,0.6,0,0.7,0.3l0,0
			C289,20.4,289,20.4,289.5,20.4L289.5,20.4z M280.8,19.5c0.1,0.1,0.2,0.1,0.2,0.2c0.2,0.2,0.4,0.2,0.5,0l0.1-0.1
			c0.3-0.3,0.3-0.3,0.1-0.7c-0.1-0.3,0-0.6,0.3-0.7c0.5-0.1,0.5-0.1,0.5-0.5v-0.3c0-0.2-0.1-0.4-0.3-0.3s-0.4-0.2-0.5-0.4
			s0-0.3,0.1-0.4s0.2-0.4,0-0.5l-0.2-0.2c-0.3-0.3-0.3-0.3-0.6,0s-0.4,0-0.6-0.1c-0.1-0.1-0.2-0.2-0.2-0.3c-0.1-0.4,0-0.4-0.5-0.4
			h-0.2c-0.3-0.1-0.5,0.1-0.5,0.4c0,0.3-0.3,0.4-0.5,0.4c-0.1,0-0.2,0-0.2-0.1c-0.2-0.2-0.4-0.2-0.6,0c0,0.1-0.1,0.1-0.1,0.1
			c-0.3,0.2-0.3,0.4,0,0.6c0.3,0.2,0.1,0.4,0,0.6c-0.1,0.1-0.2,0.2-0.3,0.2c-0.4,0.1-0.4,0.1-0.4,0.5c0,0.1,0,0.1,0,0.2
			c0,0.3,0.1,0.4,0.4,0.5c0.3,0,0.5,0.2,0.5,0.5c0,0.1-0.1,0.2-0.1,0.3c-0.2,0.2-0.2,0.3,0,0.5c0.5,0.5,0.5,0.5,1,0.1
			c0.1,0,0.3,0.1,0.4,0.2s0.1,0.1,0.2,0.2c0.1,0.5,0,0.5,0.6,0.5h0.2c0.3,0,0.4-0.1,0.4-0.4c0-0.2,0.1-0.3,0.2-0.4l0,0
			C280.6,19.6,280.7,19.6,280.8,19.5L280.8,19.5z"/>
		<path d="M275.8,22.9c1,0,2,0,2.9,0c0.1,0,0.2,0.1,0.3,0.2c2.1,3.1,6.2,3.8,9.3,1.8c0.7-0.5,1.3-1.1,1.8-1.8
			c0.1-0.2,0.3-0.3,0.5-0.3h2.7c-0.2,0.4-0.4,0.8-0.6,1.1c-0.2,0.2-0.1,0.5,0.1,0.7l0,0c0.4,0.5,0.8,1,1.2,1.5
			c0.1,0.1,0.2,0.3,0.1,0.5c0,0,0,0-0.1,0.1l-2.1,2.1c-0.1,0.1-0.3,0.2-0.4,0.1c0,0,0,0-0.1-0.1l-1.7-1.4c-0.1-0.1-0.3-0.1-0.4,0
			c-0.8,0.5-1.6,0.8-2.5,1c-0.1,0-0.2,0.1-0.2,0.3c-0.1,0.7-0.2,1.4-0.3,2.1c0,0.3-0.1,0.4-0.4,0.4c-0.9,0-1.9,0-2.8,0
			c-0.3,0-0.4-0.1-0.5-0.4c-0.1-0.7-0.2-1.4-0.3-2.1c0-0.1-0.1-0.2-0.2-0.3l0,0c-0.9-0.2-1.7-0.6-2.5-1c-0.1,0-0.2,0-0.3,0
			c-0.6,0.4-1.1,0.9-1.7,1.3c-0.3,0.2-0.3,0.2-0.6,0l-1.9-1.9c-0.3-0.3-0.3-0.3,0-0.6c0.4-0.5,0.8-1.1,1.3-1.6
			c0.1-0.1,0.1-0.3,0-0.4C276.2,23.8,276,23.4,275.8,22.9z"/>
		<path d="M275.1,9.2l-0.8,0.8l-3.1-3.6c-0.3,0.2-0.7,0.3-1.1,0.2c-0.7-0.2-1.1-1-0.9-1.6c0.2-0.7,1-1.1,1.6-0.9
			c0.7,0.2,1,1,0.8,1.6v0.1c-0.1,0.2-0.1,0.4,0.1,0.5l0,0L275.1,9.2z"/>
		<path d="M288.1,17.5c0-0.8,0.6-1.4,1.4-1.4l0,0c0.8,0,1.4,0.6,1.4,1.4s-0.6,1.4-1.4,1.4C288.7,19,288.1,18.3,288.1,17.5
			L288.1,17.5z"/>
		<path d="M281,17.5c0.1,0.8-0.5,1.5-1.3,1.5c-0.8,0.1-1.5-0.5-1.5-1.3c0-0.1,0-0.2,0-0.2c0.1-0.8,0.8-1.4,1.5-1.3
			C280.4,16.3,280.9,16.8,281,17.5z"/>
		<path d="M367.9,31l-0.5,0.3c-1.1,0.6-2.4,0.6-3.4-0.1c-1.1-0.6-1.7-1.8-1.6-3c0.1-5.2,0.3-10.4,0.5-15.6c0-0.1-0.1-0.3-0.2-0.3
			c-3.5-1.7-4.9-5.9-3.2-9.4l0,0c0.4-0.8,0.9-1.4,1.5-2c0.2-0.2,0.5-0.3,0.8-0.2s0.4,0.4,0.4,0.7v4.3c0,0.1,0.1,0.3,0.2,0.3l3.1,1.6
			c0.1,0.1,0.3,0.1,0.4,0c1-0.6,2.1-1.1,3.1-1.6c0.1-0.1,0.2-0.2,0.2-0.3c0-1.5,0-2.9,0-4.4c0-0.3,0.1-0.6,0.4-0.7s0.6,0,0.7,0.2
			c2.9,2.6,3.1,7,0.6,9.9c-0.6,0.7-1.3,1.2-2.1,1.6c-0.1,0.1-0.2,0.2-0.2,0.3c0.2,5.1,0.4,10.3,0.6,15.4c0.1,0.8-0.2,1.7-0.7,2.4
			c0,0,0,0,0,0.1L367.9,31z M366.6,27.6c-0.5-0.5-1.3-0.5-1.7,0l0,0c-0.5,0.5-0.5,1.3,0,1.8s1.3,0.5,1.8,0S367.1,28.1,366.6,27.6
			L366.6,27.6z"/>
	</g>
	<g>
		<path d="M5.8,16.9H15v5H5.8v3.4h10.1v5.4H0V8h15.9v5.4h-10L5.8,16.9z"/>
		<path d="M18.9,8h5.8v17.1H34v5.7H18.9V8z"/>
		<path d="M42.1,16.9h9.2v5h-9.2v3.4h10v5.4H36.3V8h15.9v5.4h-10L42.1,16.9L42.1,16.9z"/>
		<path d="M87.5,13.2v17.4h-5.8V13.2h-6V7.7h17.9v5.5H87.5z"/>
		<path d="M102.7,23.3h-1v7.3h-5.9V7.8h9.1c4.7,0,8.3,2.1,8.5,7.5c0,4.2-1.7,6.6-4.5,7.5l6.2,7.8H108L102.7,23.3z M105,18.3
			c1.4,0,2.6-1.2,2.6-2.6s-1.2-2.6-2.6-2.6l0,0h-3.4v5.2H105z"/>
		<path d="M137.8,7.8h5.5l5.5,9.7l1.9,4.6h0.2l-0.6-3.9V7.8h5.7v22.8h-5.8l-5.2-9l-2-4.6h-0.2l0.7,4.4v9.1h-5.8L137.8,7.8z"/>
		<path d="M165.4,30.6h-5.8V7.8h5.8V30.6z"/>
		<path d="M185.6,25.8c-1.5,3.1-4.7,5.1-8.2,5.1c-4.5,0-9-2.6-9-7.8v-7.9c0-5.2,4.5-7.8,9.1-7.8c3.5-0.1,6.7,2,8,5.3l-4.7,1.9
			c-1.5-2.8-6.6-2.2-6.6,0.6v7.9c0,2.7,5.1,3.5,6.4,0.4L185.6,25.8z"/>
		<path d="M126.7,8.2c0.2,0.1,0.5,0.1,0.8,0.1c4.5,0.7,8.1,4.1,8.9,8.6c0.1,0.3,0.1,0.7,0.1,1V18v1c-0.2,0.3-0.4,0.4-0.7,0.4
			s-0.4-0.3-0.4-0.7c-0.1-4.4-3.1-8.1-7.4-9.1c-0.7-0.1-1.3-0.2-2-0.3c-0.4,0-0.6-0.1-0.7-0.4s0.1-0.5,0.4-0.6L126.7,8.2z"/>
		<path d="M122.3,12.4l0.4,0.5c0.1,0.1,0.1,0.1,0.2,0c0.6-0.4,1.2-0.6,1.9-0.7h0.3c0.1,0,0.2,0.1,0.2,0.2c0,0.1,0,0.2-0.1,0.2l0,0
			h-0.4c-0.6,0.1-1.2,0.3-1.7,0.7c-0.2,0.1-0.3,0.1-0.4-0.1l-0.5-0.5c0-0.1-0.1-0.1-0.2,0c-0.6,0.4-1.2,1-1.7,1.6l1.9,1.5
			c0.3-0.4,0.6-0.8,1-1.2c1-0.9,2.2-1.4,3.6-1.4c0.3,0,0.5,0.1,0.5,0.3s-0.2,0.4-0.5,0.4c-1.7,0-3.3,1-4.2,2.5
			c-1.3,2.3-0.5,5.3,1.8,6.7c0.5,0.3,1.1,0.5,1.7,0.6c0.3,0,0.5,0.1,0.8,0.1s0.4,0.1,0.4,0.4c0,0.2-0.2,0.4-0.4,0.4c0,0,0,0-0.1,0
			c-2.1,0-4-1.2-4.9-3c-0.1-0.2-0.1-0.2-0.3-0.1c-0.8,0.3-1.6,0.5-2.4,0.8c-0.2,0-0.2,0.1-0.1,0.3c0.4,1.1,1.1,2,2,2.7l0.2,0.2
			c0.1,0.1,0.1,0.2,0,0.3l0,0c-0.1,0.1-0.2,0.1-0.2,0l0,0c-1-0.8-1.9-1.8-2.4-3c-0.1-0.1-0.1-0.2-0.3-0.1c-0.4,0.1-0.8,0.2-1.1,0.4
			c0.5,1.1,1.1,2,1.9,2.9c1.8,1.8,4.2,2.8,6.7,2.9c0.1,0,0.2,0,0.3,0c0.3,0.1,0.4,0.3,0.4,0.6c0,0.3-0.3,0.5-0.6,0.5
			c-0.7,0-1.3,0-1.9-0.2c-3.3-0.6-6.1-2.7-7.6-5.8c-0.9-1.7-1.2-3.6-1.1-5.5c0.2-2.3,1-4.4,2.5-6.1c0.1-0.2,0.3-0.3,0.6-0.3
			c0.3,0,0.5,0.3,0.4,0.6c0,0.1-0.1,0.2-0.1,0.3c-0.3,0.4-0.6,0.8-0.9,1.3c-1.1,1.8-1.6,3.8-1.4,5.9c0.1,0.8,0.3,1.7,0.6,2.4
			c0,0.1,0.1,0.1,0.2,0.1l4.2-1.3c0.1,0,0.1-0.1,0.1-0.2c-0.5-1.5-0.4-3.1,0.3-4.5c0-0.1,0-0.2,0-0.3c-0.6-0.4-1.1-0.9-1.7-1.3
			c-0.1-0.1-0.2-0.1-0.3,0.1c-0.8,1.1-1.2,2.5-1.2,3.9c0,0.1,0,0.1,0,0.2s-0.1,0.2-0.2,0.2s-0.2-0.1-0.2-0.2l0,0
			c0-0.4,0-0.7,0.1-1.1c0.3-2.2,1.6-4.2,3.5-5.4c1-0.6,2.1-1,3.3-1.1c0.2,0,0.4,0,0.5-0.2c0.1-0.1,0.2-0.2,0.4-0.2c1,0,2,0.2,3,0.6
			c0.2,0.1,0.4,0.3,0.4,0.5c0,0.1,0,0.2,0.1,0.2c0.5,0.2,0.9,0.5,1.3,0.9c0.1,0.1,0.2,0.1,0.2,0c0.2-0.1,0.5-0.1,0.6,0.1
			c0.7,0.7,1.3,1.6,1.7,2.5c0.1,0.2,0.1,0.5-0.1,0.7c-0.1,0-0.1,0.1-0.1,0.2c0.2,0.5,0.3,1,0.3,1.5c0,0.1,0.1,0.1,0.1,0.1
			c0.3,0.1,0.4,0.3,0.4,0.5c0,1-0.1,2-0.5,2.9c-0.1,0.3-0.3,0.5-0.6,0.4c-0.1,0-0.1,0-0.1,0c-0.2,0.5-0.5,1-0.8,1.4
			c-0.1,0.1,0,0.1,0,0.2c0.1,0.2,0.1,0.5-0.1,0.7c-0.7,0.7-1.5,1.4-2.4,1.8c-0.2,0.1-0.5,0.1-0.7,0c-0.1-0.1-0.1-0.1-0.2,0
			c-0.5,0.2-1,0.3-1.5,0.4c-0.1,0-0.2,0.1-0.2,0.1c-0.1,0.2-0.2,0.3-0.4,0.3c-0.2,0-0.4,0-0.6,0c-0.3,0-0.5-0.2-0.5-0.5
			s0.2-0.5,0.5-0.5h0.5c0.1,0,0.3,0,0.4,0.1s0.2,0.1,0.3,0.1c0.5-0.1,1-0.2,1.4-0.4c0.1,0,0.1-0.1,0.2-0.2c0-0.2,0.1-0.3,0.3-0.3
			c0.8-0.4,1.5-0.9,2.1-1.6c0.1-0.1,0.2-0.2,0.3-0.2s0.2-0.1,0.3-0.2c0.3-0.4,0.6-0.9,0.8-1.3c0.1-0.1,0.1-0.2,0-0.3
			c-0.1-0.1-0.1-0.3,0-0.4c0.3-0.8,0.4-1.7,0.4-2.6c0-0.1,0-0.2,0.1-0.3c0.1-0.1,0.1-0.3,0.1-0.4c-0.1-0.5-0.2-1-0.4-1.5
			c0-0.1,0-0.1-0.1-0.2c-0.2-0.1-0.3-0.2-0.4-0.4c-0.3-0.7-0.8-1.4-1.4-2c-0.1-0.1-0.2-0.3-0.2-0.5c0-0.1,0-0.1-0.1-0.2
			c-0.4-0.4-0.9-0.7-1.3-0.9c-0.1,0-0.1,0-0.2,0c-0.1,0.1-0.3,0.1-0.5,0c-0.8-0.3-1.7-0.5-2.6-0.5c-0.2,0-0.4-0.1-0.5-0.2
			c0-0.1-0.1-0.1-0.2-0.1C124.3,11.6,123.2,11.9,122.3,12.4z"/>
		<path d="M126.8,21.5c-1.5,0-2.7-1.2-2.7-2.7s1.2-2.7,2.7-2.7s2.7,1.2,2.7,2.7l0,0C129.4,20.3,128.2,21.5,126.8,21.5z"/>
		<path d="M131.4,18.8c0,2.5-2,4.6-4.6,4.7c-0.3,0-0.5-0.2-0.4-0.5s0.2-0.2,0.4-0.3c2.1,0,3.9-1.8,3.8-3.9c0-0.4-0.1-0.7-0.2-1.1
			c-0.4-1.4-1.7-2.5-3.1-2.7c-0.2,0-0.4,0-0.5,0c-0.2,0-0.4-0.1-0.4-0.3s0.1-0.4,0.3-0.4h0.1c2.2,0,4,1.6,4.5,3.7
			C131.4,18.2,131.4,18.5,131.4,18.8z"/>
		<path d="M132.4,19.2c0.1,0,0.2,0,0.1,0.2c-0.1,0.7-0.3,1.4-0.6,2.1c0,0.1-0.1,0.2-0.2,0.1s-0.3,0-0.2-0.2c0.3-0.5,0.4-1.1,0.5-1.7
			v-0.2C132.2,19.2,132.2,19.2,132.4,19.2z"/>
		<path d="M131.5,15.4l-0.2,0.1c-0.1,0.1-0.1,0-0.1-0.1c-0.2-0.3-0.4-0.5-0.6-0.7c-0.2-0.3-0.5-0.5-0.8-0.7c-0.2-0.1,0-0.2,0-0.3
			s0.1,0,0.2,0c0.6,0.4,1.1,0.9,1.5,1.5L131.5,15.4z"/>
		<path d="M132.5,18.3c0,0.1,0,0.2-0.1,0.2s-0.3,0.1-0.3-0.2c-0.1-0.7-0.2-1.3-0.5-1.9c-0.1-0.2,0.1-0.2,0.1-0.3
			c0-0.1,0.1,0,0.2,0.1C132.3,16.9,132.5,17.6,132.5,18.3z"/>
		<path d="M129.8,23.9c-0.1-0.1-0.1-0.2-0.2-0.3s0-0.1,0.1-0.1c0.6-0.4,1.1-0.9,1.5-1.5c0.1-0.2,0.2,0,0.3,0s0,0.1,0,0.2
			c-0.4,0.6-1,1.1-1.6,1.5L129.8,23.9z"/>
		<path d="M127.8,24.8c-0.1,0-0.2-0.1-0.2-0.2s0.1-0.2,0.2-0.2l0.6-0.2c0.2-0.1,0.3-0.1,0.5-0.2c0.1,0,0.1,0,0.2,0s0.1,0.2-0.1,0.3
			C128.6,24.5,128.2,24.6,127.8,24.8L127.8,24.8z"/>
		<path d="M127.8,12.8c0.4,0.1,0.9,0.3,1.3,0.5c0.1,0,0.1,0.1,0,0.1s0,0.2-0.2,0.2c-0.4-0.2-0.7-0.3-1.1-0.4c-0.1,0-0.2-0.1-0.1-0.2
			l0,0C127.6,12.9,127.7,12.8,127.8,12.8L127.8,12.8z"/>
		<path d="M191.2,12.9c-2.2,0.3-3.8,2.4-3.5,4.6c0.3,2,2.1,3.6,4.1,3.5h13.7c2.6,0,4.6,2.1,4.6,4.7s-2.1,4.6-4.7,4.6h-13.8
			c-0.5,0-1-0.4-1-0.9c-0.1-0.5,0.3-1,0.8-1.1c0.1,0,0.3,0,0.4,0c4.5,0,9,0,13.6,0c1.4,0,2.6-1.1,2.6-2.5c0-0.2,0-0.3,0-0.5
			c-0.1-1.3-1.2-2.2-2.5-2.2H192c-0.4,0-0.8,0-1.2-0.1c-3.3-0.5-5.6-3.7-5-7c0.5-2.7,2.7-4.8,5.4-5.1c0.1,0,0.2-0.1,0.2-0.2
			c0.6-2.8,3-4.9,5.9-4.9h4.7c0.5-0.1,1,0.3,1.1,0.9c0,0.1,0,0.2,0,0.3v0.9h5.2c0.5,0,0.9,0.4,1,0.9s-0.2,1-0.7,1.1
			c-0.2,0-0.3,0.1-0.5,0.1h-5v4.1h5c0.2,0,0.3,0,0.5,0.1c0.6,0.1,0.9,0.6,0.8,1.2s-0.6,0.9-1.2,0.8H203v0.9c0,0.6-0.4,1-1,1
			c-0.1,0-0.1,0-0.2,0c-1.6,0-3.2,0-4.8,0c-1.4,0-2.8-0.5-3.9-1.5c-1.1-0.9-1.8-2.2-2-3.5L191.2,12.9z M198.8,7.8c-0.7,0-1.3,0-2,0
			c-2.2,0.3-3.8,2.4-3.4,4.6c0.3,2,2,3.5,4.1,3.5c1.1,0,2.3,0,3.4,0h0.2V7.8H198.8z"/>
		<path d="M70.4,6.1c0.2,0.1,0.5,0.1,0.7,0.2c2,0.6,3,2.8,2.4,4.7c-0.6,2-2.8,3-4.7,2.4c-1.1-0.4-2-1.2-2.4-2.3
			c0-0.2-0.2-0.3-0.4-0.3h-6.6c-0.3,0-0.4,0.1-0.3,0.4c0,0.5,0,1,0,1.5c0,0.3,0.1,0.3,0.3,0.3c0.5,0,1,0,1.5,0s1,0.3,1,0.8
			c0,0.1,0,0.1,0,0.2v12.3c0,0.5-0.3,1-0.8,1c-0.1,0-0.1,0-0.2,0c-0.5,0-1.1,0-1.6,0c-0.2,0-0.2,0.1-0.2,0.2v1.7
			c0,0.2,0,0.2,0.2,0.2h6.8c0.2,0,0.2-0.1,0.3-0.2c0.7-1.9,2.9-2.9,4.8-2.2c1.7,0.6,2.7,2.3,2.4,4c-0.3,1.5-1.5,2.7-3.1,3
			c-1.8,0.3-3.6-0.8-4.1-2.5c-0.1-0.2-0.2-0.3-0.4-0.3c-2.5,0-5.1,0-7.7,0c-0.5,0.1-1.1-0.3-1.1-0.8c0-0.1,0-0.2,0-0.3
			c0-0.9,0-1.7,0-2.5v-0.3h-1.8c-0.5,0-0.9-0.4-0.9-0.9l0,0c0-0.8,0-1.5,0-2.2V14c0-0.8,0.3-1.1,1.1-1.1h1.6v-0.3c0-0.9,0-1.7,0-2.5
			C57.1,9.6,57.5,9,58.1,9c0.1,0,0.2,0,0.3,0c2.5,0,5.1,0,7.6,0c0.2,0,0.4-0.1,0.4-0.3c0.4-1.3,1.6-2.3,3-2.5h0.1L70.4,6.1z
			 M56.4,14.8v10.6H60V14.8H56.4z M71.9,9.8c-0.1-1.1-1-1.8-2-1.8c-0.9,0.1-1.7,0.8-1.8,1.8c0.1,1.1,1,1.8,2,1.8
			C71,11.5,71.8,10.8,71.9,9.8z M71.9,30.4c0-1.1-0.8-1.9-1.9-1.9s-1.9,0.8-1.9,1.9s0.8,1.9,1.9,1.9l0,0
			C71,32.2,71.9,31.4,71.9,30.4z"/>
	</g>
	<g class="st0">
		<path d="M240.9,22.2l-2.3,1.9l4.7,5.8h-7.4l-1.7-2c-5.1,4.5-14.1,1.9-14.1-5.9c0-3,1.4-4.8,3.7-6.2c-4.3-4.5-0.6-11.1,5.5-10.9
			c3.5,0.1,6.7,2.6,6.7,6.5c0,2.8-1.3,4.5-3,5.7l2.1,2.6l2.2-1.9L240.9,22.2z M227.5,20.1c-1.5,0.8-1.7,2.5-0.9,3.6
			c0.9,1.2,2.9,1.3,4,0L227.5,20.1z M227.6,11.5c0,0.6,0.6,1.4,1.3,2.2c1.1-0.7,1.7-1.4,1.7-2.3c0-0.8-0.6-1.5-1.4-1.5
			C228.4,9.9,227.6,10.6,227.6,11.5z"/>
	</g>
</g>
</svg>
